<svg xmlns="http://www.w3.org/2000/svg" id="canvas" viewBox="229.563 312.906 872.791 88.026"><path d="M 252.41,319.18 C 252.04 319.63, 251.89 320.23, 251.45 321.60 C 251.02 322.98, 250.80 323.85, 250.24 326.04 C 249.68 328.24, 249.39 329.68, 248.66 332.57 C 247.92 335.46, 247.55 337.16, 246.56 340.51 C 245.57 343.85, 244.91 345.71, 243.71 349.30 C 242.52 352.88, 241.80 354.82, 240.59 358.42 C 239.37 362.02, 238.73 363.92, 237.64 367.29 C 236.55 370.65, 235.97 372.34, 235.14 375.26 C 234.31 378.18, 233.98 379.54, 233.49 381.89 C 233.00 384.23, 232.86 385.30, 232.69 387.00 C 232.52 388.71, 232.54 389.38, 232.64 390.41 C 232.73 391.44, 232.94 391.70, 233.16 392.14 C 233.39 392.58, 233.58 392.56, 233.76 392.62 C 233.94 392.68, 234.00 392.57, 234.07 392.43 C 234.14 392.30, 234.05 392.34, 234.10 391.94 C 234.14 391.54, 234.19 391.36, 234.30 390.42 C 234.41 389.48, 234.38 388.87, 234.64 387.25 C 234.89 385.63, 235.05 384.62, 235.56 382.33 C 236.07 380.04, 236.39 378.71, 237.16 375.82 C 237.94 372.92, 238.41 371.22, 239.45 367.86 C 240.48 364.50, 241.11 362.60, 242.32 359.01 C 243.54 355.42, 244.26 353.48, 245.51 349.91 C 246.77 346.34, 247.46 344.48, 248.59 341.15 C 249.73 337.82, 250.32 336.16, 251.17 333.26 C 252.03 330.36, 252.42 328.90, 252.87 326.65 C 253.33 324.39, 253.37 323.44, 253.46 321.97 C 253.56 320.51, 253.54 319.89, 253.33 319.33 C 253.12 318.77, 252.79 318.72, 252.41 319.18" style="stroke: black; fill: black;"/><path d="M 274.77,327.24 C 274.43 327.46, 274.30 327.66, 273.90 328.53 C 273.49 329.40, 273.26 329.95, 272.74 331.59 C 272.22 333.24, 271.95 334.34, 271.28 336.77 C 270.61 339.19, 270.27 340.75, 269.39 343.71 C 268.50 346.67, 267.93 348.38, 266.85 351.59 C 265.77 354.79, 265.13 356.54, 263.98 359.74 C 262.84 362.95, 262.22 364.62, 261.14 367.60 C 260.06 370.57, 259.49 372.06, 258.59 374.63 C 257.70 377.20, 257.30 378.40, 256.65 380.45 C 256.00 382.50, 255.69 383.43, 255.33 384.87 C 254.97 386.32, 254.95 386.84, 254.85 387.66 C 254.75 388.49, 254.74 388.69, 254.83 388.99 C 254.93 389.28, 255.07 389.34, 255.32 389.15 C 255.57 388.96, 255.71 388.78, 256.09 388.04 C 256.46 387.30, 256.67 386.83, 257.19 385.45 C 257.71 384.07, 257.98 383.15, 258.68 381.13 C 259.39 379.11, 259.85 377.94, 260.73 375.37 C 261.62 372.81, 262.09 371.29, 263.13 368.30 C 264.16 365.32, 264.76 363.64, 265.92 360.44 C 267.07 357.24, 267.72 355.49, 268.89 352.30 C 270.06 349.11, 270.73 347.43, 271.76 344.48 C 272.80 341.53, 273.34 340.00, 274.06 337.56 C 274.78 335.12, 275.02 333.98, 275.36 332.26 C 275.70 330.55, 275.71 329.95, 275.76 328.98 C 275.80 328.02, 275.77 327.78, 275.58 327.44 C 275.38 327.09, 275.10 327.02, 274.77 327.24" style="stroke: black; fill: black;"/><path d="M 237.24,366.10 C 237.57 366.31, 237.77 366.36, 238.69 366.36 C 239.60 366.36, 240.20 366.32, 241.82 366.12 C 243.45 365.91, 244.54 365.71, 246.81 365.34 C 249.08 364.97, 250.51 364.71, 253.19 364.26 C 255.87 363.82, 257.38 363.56, 260.22 363.13 C 263.06 362.70, 264.78 362.51, 267.38 362.11 C 269.97 361.70, 271.29 361.47, 273.19 361.09 C 275.09 360.70, 276.15 360.53, 276.87 360.19 C 277.59 359.86, 277.58 359.61, 276.80 359.41 C 276.02 359.22, 274.93 359.17, 272.98 359.21 C 271.03 359.24, 269.67 359.32, 267.05 359.60 C 264.42 359.87, 262.71 360.19, 259.85 360.58 C 257.00 360.97, 255.48 361.18, 252.78 361.55 C 250.08 361.92, 248.64 362.08, 246.34 362.45 C 244.05 362.82, 242.92 362.99, 241.31 363.39 C 239.70 363.80, 239.13 364.09, 238.28 364.47 C 237.43 364.86, 237.28 364.98, 237.07 365.31 C 236.86 365.63, 236.92 365.89, 237.24 366.10" style="stroke: black; fill: black;"/><path d="M 292.92,370.83 C 293.31 371.09, 293.72 371.22, 294.77 371.21 C 295.82 371.20, 296.54 371.16, 298.17 370.79 C 299.79 370.42, 300.90 370.10, 302.90 369.36 C 304.90 368.61, 306.09 368.07, 308.16 367.05 C 310.23 366.04, 311.37 365.42, 313.23 364.28 C 315.08 363.15, 316.04 362.54, 317.44 361.37 C 318.85 360.19, 319.51 359.59, 320.26 358.41 C 321.01 357.22, 321.27 356.55, 321.20 355.45 C 321.13 354.35, 320.86 353.69, 319.91 352.89 C 318.96 352.10, 318.20 351.70, 316.44 351.46 C 314.68 351.23, 313.51 351.23, 311.12 351.72 C 308.72 352.20, 307.25 352.66, 304.47 353.89 C 301.69 355.13, 300.07 356.06, 297.22 357.88 C 294.37 359.69, 292.77 360.85, 290.21 362.98 C 287.65 365.11, 286.29 366.30, 284.42 368.54 C 282.56 370.78, 281.79 372.03, 280.87 374.18 C 279.96 376.33, 279.73 377.43, 279.84 379.28 C 279.96 381.13, 280.32 382.03, 281.44 383.44 C 282.55 384.86, 283.41 385.49, 285.42 386.35 C 287.43 387.20, 288.75 387.53, 291.50 387.72 C 294.26 387.91, 295.95 387.73, 299.21 387.30 C 302.47 386.87, 304.27 386.46, 307.80 385.56 C 311.32 384.67, 313.54 383.94, 316.82 382.82 C 320.10 381.69, 321.82 381.06, 324.21 379.94 C 326.59 378.82, 327.91 377.91, 328.75 377.21 C 329.59 376.52, 329.46 376.29, 328.40 376.47 C 327.35 376.65, 325.91 377.24, 323.45 378.11 C 321.00 378.98, 319.37 379.72, 316.14 380.80 C 312.91 381.89, 310.73 382.69, 307.29 383.53 C 303.85 384.37, 302.06 384.69, 298.94 385.02 C 295.81 385.34, 294.21 385.31, 291.67 385.16 C 289.13 385.00, 287.98 384.83, 286.22 384.25 C 284.45 383.67, 283.76 383.27, 282.84 382.26 C 281.92 381.26, 281.64 380.65, 281.62 379.21 C 281.60 377.76, 281.82 376.87, 282.74 375.04 C 283.65 373.20, 284.42 372.11, 286.19 370.03 C 287.96 367.95, 289.16 366.70, 291.61 364.66 C 294.05 362.61, 295.64 361.48, 298.42 359.81 C 301.19 358.13, 302.84 357.38, 305.49 356.29 C 308.14 355.20, 309.53 354.86, 311.68 354.37 C 313.84 353.89, 314.82 353.87, 316.27 353.87 C 317.72 353.86, 318.24 354.01, 318.93 354.34 C 319.62 354.66, 319.75 354.89, 319.71 355.47 C 319.67 356.06, 319.46 356.45, 318.72 357.27 C 317.99 358.09, 317.40 358.61, 316.05 359.58 C 314.70 360.55, 313.77 361.12, 311.96 362.12 C 310.16 363.13, 309.02 363.69, 307.01 364.60 C 304.99 365.50, 303.81 365.93, 301.89 366.63 C 299.97 367.34, 298.91 367.61, 297.41 368.12 C 295.91 368.64, 295.31 368.85, 294.40 369.22 C 293.48 369.58, 293.13 369.61, 292.83 369.94 C 292.53 370.26, 292.53 370.58, 292.92 370.83" style="stroke: black; fill: black;"/><path d="M 361.47,324.96 C 361.03 325.26, 360.81 325.65, 360.08 326.81 C 359.35 327.98, 358.86 328.71, 357.82 330.78 C 356.78 332.85, 356.21 334.31, 354.88 337.16 C 353.55 340.01, 352.78 341.78, 351.18 345.03 C 349.58 348.28, 348.59 350.12, 346.89 353.41 C 345.18 356.69, 344.21 358.42, 342.64 361.45 C 341.08 364.48, 340.23 365.98, 339.08 368.57 C 337.93 371.15, 337.49 372.39, 336.89 374.40 C 336.30 376.40, 336.19 377.27, 336.09 378.61 C 336.00 379.95, 336.19 380.36, 336.42 381.07 C 336.64 381.78, 336.87 381.91, 337.23 382.16 C 337.59 382.41, 337.92 382.39, 338.22 382.32 C 338.51 382.25, 338.72 382.02, 338.69 381.80 C 338.66 381.58, 338.22 381.30, 338.06 381.22 C 337.89 381.14, 337.91 381.35, 337.87 381.40 C 337.84 381.45, 337.90 381.59, 337.87 381.47 C 337.84 381.35, 337.73 381.35, 337.72 380.82 C 337.71 380.29, 337.58 379.99, 337.80 378.83 C 338.03 377.67, 338.16 376.89, 338.83 375.02 C 339.49 373.15, 340.01 372.01, 341.13 369.47 C 342.25 366.94, 342.93 365.38, 344.42 362.35 C 345.92 359.31, 346.88 357.58, 348.61 354.31 C 350.34 351.04, 351.35 349.20, 353.06 345.99 C 354.78 342.79, 355.74 341.10, 357.19 338.29 C 358.63 335.48, 359.36 334.08, 360.30 331.95 C 361.24 329.82, 361.50 328.96, 361.89 327.63 C 362.29 326.30, 362.36 325.84, 362.28 325.30 C 362.19 324.77, 361.91 324.66, 361.47 324.96" style="stroke: black; fill: black;"/><path d="M 381.17,325.80 C 380.75 326.13, 380.61 326.57, 379.90 327.76 C 379.18 328.95, 378.68 329.67, 377.60 331.73 C 376.52 333.78, 375.90 335.25, 374.48 338.03 C 373.06 340.81, 372.19 342.53, 370.51 345.64 C 368.83 348.75, 367.81 350.49, 366.06 353.58 C 364.31 356.66, 363.31 358.25, 361.77 361.06 C 360.24 363.88, 359.46 365.25, 358.38 367.64 C 357.29 370.03, 356.85 371.14, 356.34 373.01 C 355.82 374.87, 355.69 375.65, 355.80 376.96 C 355.90 378.27, 356.18 378.92, 356.86 379.56 C 357.54 380.20, 358.69 380.23, 359.21 380.18 C 359.74 380.13, 359.78 379.61, 359.50 379.30 C 359.22 378.99, 358.23 379.09, 357.81 378.62 C 357.40 378.15, 357.33 377.95, 357.41 376.95 C 357.49 375.94, 357.63 375.28, 358.23 373.60 C 358.82 371.92, 359.30 370.87, 360.38 368.56 C 361.46 366.25, 362.13 364.85, 363.62 362.06 C 365.10 359.26, 366.06 357.65, 367.81 354.58 C 369.57 351.50, 370.60 349.76, 372.39 346.70 C 374.18 343.63, 375.23 342.00, 376.76 339.25 C 378.29 336.50, 379.07 335.09, 380.06 332.95 C 381.06 330.81, 381.34 329.92, 381.73 328.55 C 382.12 327.18, 382.12 326.64, 382.01 326.09 C 381.90 325.54, 381.59 325.46, 381.17 325.80" style="stroke: black; fill: black;"/><path d="M 412.89,354.15 C 412.71 353.70, 412.38 353.22, 411.53 352.75 C 410.68 352.28, 410.05 351.96, 408.64 351.81 C 407.23 351.66, 406.29 351.62, 404.49 352.01 C 402.69 352.41, 401.68 352.85, 399.64 353.80 C 397.59 354.76, 396.36 355.39, 394.25 356.79 C 392.14 358.19, 390.93 359.11, 389.07 360.80 C 387.21 362.49, 386.26 363.48, 384.96 365.25 C 383.66 367.02, 383.10 367.97, 382.58 369.64 C 382.06 371.31, 381.98 372.19, 382.36 373.61 C 382.75 375.03, 383.24 375.77, 384.50 376.76 C 385.76 377.75, 386.68 378.14, 388.65 378.56 C 390.63 378.98, 391.90 379.04, 394.39 378.86 C 396.88 378.67, 398.38 378.40, 401.09 377.63 C 403.81 376.86, 405.32 376.24, 407.96 374.99 C 410.60 373.74, 412.03 372.96, 414.30 371.38 C 416.57 369.81, 417.69 368.87, 419.33 367.11 C 420.97 365.35, 421.65 364.35, 422.50 362.60 C 423.35 360.84, 423.56 359.91, 423.58 358.34 C 423.59 356.77, 423.29 355.97, 422.59 354.74 C 421.88 353.52, 421.20 352.96, 420.07 352.20 C 418.93 351.43, 418.06 351.17, 416.93 350.92 C 415.81 350.68, 415.22 350.83, 414.46 350.98 C 413.70 351.13, 413.38 351.40, 413.13 351.67 C 412.89 351.94, 412.98 352.15, 413.24 352.35 C 413.49 352.55, 413.81 352.48, 414.43 352.66 C 415.04 352.83, 415.43 352.93, 416.32 353.23 C 417.20 353.52, 417.93 353.64, 418.86 354.14 C 419.79 354.65, 420.38 354.93, 420.95 355.76 C 421.53 356.59, 421.78 357.11, 421.73 358.29 C 421.67 359.47, 421.49 360.21, 420.68 361.65 C 419.88 363.10, 419.25 364.00, 417.70 365.54 C 416.15 367.08, 415.10 367.94, 412.94 369.37 C 410.78 370.81, 409.41 371.56, 406.90 372.70 C 404.39 373.84, 402.92 374.38, 400.38 375.08 C 397.83 375.78, 396.43 376.00, 394.16 376.22 C 391.90 376.43, 390.77 376.38, 389.06 376.17 C 387.36 375.96, 386.63 375.75, 385.62 375.15 C 384.62 374.56, 384.26 374.15, 384.02 373.18 C 383.79 372.21, 383.88 371.61, 384.44 370.31 C 384.99 369.01, 385.53 368.20, 386.80 366.68 C 388.06 365.17, 388.99 364.26, 390.77 362.73 C 392.56 361.20, 393.72 360.34, 395.73 359.04 C 397.73 357.74, 398.91 357.12, 400.78 356.23 C 402.65 355.34, 403.55 354.96, 405.08 354.59 C 406.62 354.21, 407.33 354.33, 408.47 354.35 C 409.62 354.37, 410.03 354.57, 410.82 354.70 C 411.60 354.83, 411.98 355.11, 412.40 355.00 C 412.81 354.89, 413.06 354.60, 412.89 354.15" style="stroke: black; fill: black;"/><path d="M 452.43,372.88 C 452.03 373.12, 451.88 373.45, 451.28 374.37 C 450.67 375.29, 450.31 375.97, 449.40 377.48 C 448.50 378.98, 447.92 380.03, 446.75 381.90 C 445.58 383.78, 444.79 384.94, 443.55 386.85 C 442.31 388.76, 441.57 389.80, 440.56 391.46 C 439.56 393.11, 439.10 393.94, 438.52 395.13 C 437.95 396.33, 437.74 396.89, 437.69 397.42 C 437.64 397.95, 437.83 398.06, 438.28 397.79 C 438.73 397.52, 439.09 397.06, 439.95 396.07 C 440.81 395.08, 441.41 394.37, 442.58 392.83 C 443.75 391.29, 444.47 390.26, 445.81 388.39 C 447.14 386.51, 448.03 385.39, 449.25 383.47 C 450.47 381.56, 451.11 380.47, 451.89 378.81 C 452.68 377.15, 452.90 376.31, 453.17 375.19 C 453.44 374.06, 453.41 373.63, 453.26 373.17 C 453.11 372.71, 452.82 372.64, 452.43 372.88" style="stroke: black; fill: black;"/><path d="M 497.95,317.07 C 497.51 317.43, 497.30 317.94, 496.64 319.15 C 495.98 320.35, 495.54 321.17, 494.65 323.10 C 493.77 325.03, 493.25 326.34, 492.20 328.77 C 491.15 331.21, 490.58 332.64, 489.39 335.29 C 488.20 337.94, 487.49 339.37, 486.23 342.04 C 484.98 344.71, 484.28 346.09, 483.13 348.62 C 481.98 351.15, 481.41 352.43, 480.49 354.69 C 479.58 356.95, 479.17 358.06, 478.54 359.93 C 477.90 361.80, 477.65 362.64, 477.34 364.05 C 477.02 365.45, 476.99 366.06, 476.96 366.96 C 476.92 367.85, 476.99 368.19, 477.15 368.52 C 477.31 368.85, 477.51 368.86, 477.75 368.61 C 478.00 368.35, 478.07 368.04, 478.37 367.24 C 478.68 366.43, 478.83 365.90, 479.27 364.58 C 479.71 363.27, 479.91 362.45, 480.57 360.65 C 481.24 358.85, 481.66 357.78, 482.61 355.57 C 483.55 353.37, 484.15 352.12, 485.30 349.62 C 486.46 347.12, 487.10 345.71, 488.38 343.06 C 489.65 340.41, 490.40 338.99, 491.68 336.36 C 492.96 333.73, 493.68 332.36, 494.78 329.92 C 495.89 327.48, 496.44 326.17, 497.20 324.17 C 497.96 322.16, 498.26 321.25, 498.58 319.89 C 498.91 318.53, 498.95 317.92, 498.82 317.36 C 498.69 316.80, 498.38 316.71, 497.95 317.07" style="stroke: black; fill: black;"/><path d="M 534.67,315.99 C 534.22 316.17, 533.93 316.54, 533.25 317.34 C 532.57 318.14, 532.08 318.78, 531.26 319.97 C 530.44 321.16, 529.90 322.02, 529.13 323.31 C 528.37 324.60, 528.01 325.34, 527.43 326.43 C 526.85 327.53, 526.57 327.99, 526.23 328.78 C 525.89 329.58, 525.83 329.89, 525.73 330.43 C 525.64 330.96, 525.64 331.22, 525.76 331.47 C 525.89 331.72, 526.12 331.77, 526.36 331.67 C 526.60 331.58, 526.67 331.36, 526.98 330.98 C 527.29 330.59, 527.43 330.41, 527.92 329.75 C 528.42 329.10, 528.73 328.69, 529.45 327.71 C 530.18 326.73, 530.70 326.10, 531.56 324.86 C 532.41 323.63, 533.02 322.81, 533.74 321.52 C 534.47 320.23, 534.82 319.45, 535.17 318.43 C 535.52 317.41, 535.60 316.91, 535.50 316.42 C 535.40 315.93, 535.12 315.80, 534.67 315.99" style="stroke: black; fill: black;"/><path d="M 554.64,346.50 C 554.29 346.73, 554.23 347.05, 553.77 347.85 C 553.31 348.64, 553.00 349.13, 552.33 350.47 C 551.66 351.81, 551.28 352.80, 550.42 354.54 C 549.56 356.28, 549.02 357.33, 548.04 359.18 C 547.06 361.03, 546.43 362.09, 545.54 363.79 C 544.64 365.49, 544.10 366.35, 543.56 367.67 C 543.01 368.98, 542.80 369.62, 542.81 370.35 C 542.82 371.09, 543.03 371.38, 543.59 371.34 C 544.16 371.31, 544.65 371.08, 545.64 370.20 C 546.63 369.31, 547.20 368.51, 548.54 366.92 C 549.88 365.32, 550.63 364.18, 552.35 362.25 C 554.07 360.31, 555.15 359.15, 557.14 357.23 C 559.12 355.31, 560.29 354.27, 562.28 352.65 C 564.27 351.02, 565.35 350.24, 567.09 349.10 C 568.83 347.96, 569.69 347.50, 571.00 346.94 C 572.31 346.37, 572.85 346.26, 573.63 346.28 C 574.41 346.31, 574.60 346.48, 574.90 347.07 C 575.20 347.65, 575.17 348.11, 575.11 349.21 C 575.05 350.31, 574.91 351.08, 574.60 352.57 C 574.29 354.05, 574.03 354.98, 573.55 356.62 C 573.06 358.26, 572.68 359.23, 572.18 360.77 C 571.67 362.31, 571.27 363.11, 571.03 364.31 C 570.79 365.51, 570.73 366.10, 570.99 366.75 C 571.24 367.41, 571.54 367.69, 572.31 367.59 C 573.09 367.49, 573.64 367.18, 574.87 366.24 C 576.09 365.30, 576.80 364.48, 578.44 362.90 C 580.08 361.32, 581.05 360.18, 583.06 358.35 C 585.07 356.52, 586.28 355.42, 588.48 353.75 C 590.69 352.08, 591.96 351.24, 594.06 350.02 C 596.17 348.79, 597.29 348.28, 599.01 347.63 C 600.74 346.98, 601.52 346.83, 602.69 346.77 C 603.86 346.71, 604.28 346.83, 604.86 347.32 C 605.44 347.81, 605.53 348.19, 605.59 349.21 C 605.64 350.23, 605.49 350.95, 605.14 352.44 C 604.80 353.92, 604.46 354.87, 603.87 356.65 C 603.28 358.42, 602.83 359.51, 602.18 361.31 C 601.53 363.10, 601.06 364.02, 600.62 365.61 C 600.19 367.19, 599.93 368.05, 599.99 369.23 C 600.05 370.42, 600.40 370.88, 600.93 371.54 C 601.46 372.20, 602.01 372.39, 602.66 372.53 C 603.30 372.66, 603.87 372.47, 604.16 372.22 C 604.46 371.96, 604.36 371.48, 604.14 371.24 C 603.91 371.00, 603.44 371.12, 603.03 371.00 C 602.62 370.88, 602.33 370.97, 602.08 370.64 C 601.84 370.30, 601.66 370.17, 601.82 369.32 C 601.98 368.47, 602.32 367.78, 602.89 366.36 C 603.45 364.95, 603.93 364.03, 604.66 362.26 C 605.38 360.49, 605.90 359.38, 606.50 357.51 C 607.11 355.63, 607.47 354.60, 607.68 352.87 C 607.89 351.14, 607.92 350.21, 607.55 348.86 C 607.19 347.51, 606.81 346.89, 605.85 346.12 C 604.88 345.34, 604.22 345.10, 602.72 344.99 C 601.21 344.89, 600.30 345.02, 598.33 345.60 C 596.37 346.18, 595.17 346.70, 592.89 347.91 C 590.61 349.11, 589.28 349.97, 586.93 351.63 C 584.59 353.29, 583.29 354.37, 581.16 356.19 C 579.03 358.01, 577.91 359.08, 576.29 360.71 C 574.66 362.35, 573.95 363.21, 573.03 364.38 C 572.11 365.55, 571.90 366.08, 571.70 366.56 C 571.50 367.05, 571.73 367.10, 572.03 366.79 C 572.32 366.49, 572.65 366.07, 573.17 365.04 C 573.69 364.01, 574.02 363.18, 574.62 361.65 C 575.22 360.13, 575.64 359.14, 576.17 357.42 C 576.70 355.69, 577.04 354.71, 577.29 353.04 C 577.53 351.37, 577.61 350.44, 577.39 349.07 C 577.18 347.69, 576.93 347.02, 576.21 346.15 C 575.50 345.29, 574.99 344.95, 573.81 344.74 C 572.64 344.53, 571.91 344.61, 570.33 345.10 C 568.75 345.58, 567.82 346.06, 565.90 347.18 C 563.98 348.30, 562.86 349.08, 560.74 350.70 C 558.62 352.32, 557.41 353.36, 555.30 355.28 C 553.20 357.20, 552.05 358.35, 550.22 360.29 C 548.39 362.23, 547.45 363.31, 546.15 364.99 C 544.85 366.68, 544.34 367.55, 543.73 368.71 C 543.13 369.87, 543.07 370.37, 543.12 370.80 C 543.16 371.22, 543.46 371.24, 543.95 370.83 C 544.44 370.42, 544.81 369.89, 545.57 368.73 C 546.33 367.57, 546.78 366.68, 547.75 365.03 C 548.73 363.39, 549.39 362.35, 550.45 360.51 C 551.50 358.67, 552.15 357.63, 553.04 355.84 C 553.93 354.05, 554.36 353.03, 554.89 351.56 C 555.42 350.09, 555.55 349.46, 555.68 348.49 C 555.81 347.51, 555.73 347.10, 555.52 346.70 C 555.32 346.30, 555.00 346.27, 554.64 346.50" style="stroke: black; fill: black;"/><path d="M 704.34,316.73 C 703.96 317.04, 703.84 317.41, 703.27 318.51 C 702.69 319.62, 702.32 320.33, 701.47 322.25 C 700.61 324.16, 700.12 325.47, 699.00 328.09 C 697.87 330.71, 697.26 332.35, 695.84 335.35 C 694.43 338.35, 693.51 340.03, 691.92 343.12 C 690.32 346.20, 689.41 347.86, 687.87 350.77 C 686.33 353.68, 685.47 355.13, 684.20 357.69 C 682.92 360.24, 682.35 361.49, 681.50 363.54 C 680.65 365.59, 680.34 366.50, 679.95 367.92 C 679.56 369.35, 679.59 369.86, 679.56 370.64 C 679.53 371.43, 679.67 371.59, 679.81 371.83 C 679.95 372.08, 680.09 372.06, 680.27 371.87 C 680.45 371.69, 680.42 371.57, 680.72 370.90 C 681.01 370.23, 681.18 369.84, 681.72 368.54 C 682.27 367.24, 682.56 366.36, 683.46 364.39 C 684.36 362.43, 684.98 361.23, 686.23 358.70 C 687.48 356.17, 688.21 354.66, 689.71 351.73 C 691.22 348.81, 692.12 347.15, 693.76 344.08 C 695.39 341.01, 696.33 339.34, 697.89 336.37 C 699.45 333.40, 700.33 331.86, 701.55 329.24 C 702.77 326.62, 703.29 325.28, 704.01 323.26 C 704.73 321.25, 704.92 320.42, 705.15 319.16 C 705.39 317.90, 705.34 317.45, 705.18 316.96 C 705.02 316.48, 704.72 316.42, 704.34 316.73" style="stroke: black; fill: black;"/><path d="M 723.55,320.89 C 723.14 321.03, 722.88 321.24, 722.24 322.06 C 721.59 322.87, 721.19 323.40, 720.32 324.98 C 719.44 326.55, 718.92 327.63, 717.85 329.91 C 716.78 332.20, 716.21 333.66, 714.97 336.39 C 713.73 339.11, 713.00 340.68, 711.65 343.54 C 710.30 346.41, 709.52 347.95, 708.20 350.71 C 706.89 353.47, 706.19 354.88, 705.07 357.36 C 703.96 359.83, 703.45 361.04, 702.63 363.09 C 701.80 365.13, 701.43 366.08, 700.95 367.56 C 700.46 369.04, 700.40 369.59, 700.22 370.47 C 700.05 371.34, 700.00 371.61, 700.07 371.94 C 700.15 372.28, 700.31 372.34, 700.59 372.14 C 700.87 371.94, 701.04 371.71, 701.48 370.94 C 701.93 370.16, 702.17 369.68, 702.81 368.28 C 703.44 366.88, 703.78 365.93, 704.66 363.94 C 705.53 361.95, 706.08 360.77, 707.19 358.32 C 708.31 355.86, 708.93 354.43, 710.24 351.68 C 711.54 348.92, 712.31 347.38, 713.72 344.55 C 715.13 341.71, 715.94 340.18, 717.29 337.50 C 718.64 334.82, 719.37 333.42, 720.46 331.15 C 721.56 328.89, 722.06 327.81, 722.76 326.17 C 723.45 324.54, 723.65 323.94, 723.96 322.97 C 724.26 322.00, 724.37 321.74, 724.29 321.32 C 724.21 320.90, 723.96 320.74, 723.55 320.89" style="stroke: black; fill: black;"/><path d="M 683.63,352.99 C 684.00 353.22, 684.30 353.27, 685.34 353.28 C 686.39 353.29, 687.08 353.22, 688.86 353.04 C 690.63 352.86, 691.81 352.68, 694.21 352.37 C 696.61 352.05, 698.10 351.84, 700.86 351.46 C 703.62 351.08, 705.15 350.84, 708.02 350.48 C 710.88 350.12, 712.63 349.99, 715.20 349.66 C 717.77 349.33, 719.03 349.15, 720.88 348.84 C 722.74 348.52, 723.77 348.39, 724.48 348.09 C 725.19 347.79, 725.19 347.54, 724.44 347.32 C 723.69 347.10, 722.64 347.02, 720.74 346.99 C 718.85 346.96, 717.55 346.98, 714.95 347.18 C 712.34 347.37, 710.60 347.64, 707.72 347.96 C 704.83 348.28, 703.30 348.46, 700.53 348.77 C 697.75 349.07, 696.26 349.18, 693.84 349.49 C 691.42 349.79, 690.20 349.93, 688.43 350.29 C 686.66 350.66, 685.98 350.96, 684.99 351.33 C 684.00 351.71, 683.76 351.83, 683.49 352.16 C 683.22 352.49, 683.26 352.77, 683.63 352.99" style="stroke: black; fill: black;"/><path d="M 737.06,358.34 C 737.48 358.57, 737.92 358.67, 739.01 358.59 C 740.11 358.51, 740.87 358.41, 742.53 357.95 C 744.18 357.50, 745.30 357.12, 747.29 356.30 C 749.27 355.47, 750.44 354.88, 752.44 353.83 C 754.44 352.78, 755.53 352.17, 757.29 351.05 C 759.05 349.92, 759.96 349.34, 761.23 348.21 C 762.50 347.08, 763.09 346.48, 763.65 345.38 C 764.22 344.28, 764.34 343.64, 764.06 342.69 C 763.77 341.73, 763.38 341.18, 762.21 340.61 C 761.05 340.05, 760.15 339.80, 758.21 339.87 C 756.27 339.94, 755.00 340.16, 752.52 340.97 C 750.03 341.78, 748.53 342.50, 745.80 343.91 C 743.06 345.33, 741.45 346.28, 738.85 348.06 C 736.25 349.83, 734.82 350.86, 732.78 352.79 C 730.74 354.72, 729.82 355.80, 728.65 357.70 C 727.47 359.59, 727.07 360.55, 726.90 362.25 C 726.73 363.96, 726.95 364.83, 727.80 366.23 C 728.66 367.63, 729.42 368.30, 731.19 369.25 C 732.95 370.21, 734.14 370.58, 736.62 371.00 C 739.10 371.43, 740.62 371.48, 743.58 371.38 C 746.54 371.29, 748.23 371.03, 751.41 370.52 C 754.59 370.01, 756.35 369.64, 759.50 368.84 C 762.65 368.05, 764.48 367.52, 767.16 366.55 C 769.85 365.59, 771.10 364.96, 772.92 364.02 C 774.75 363.09, 775.68 362.44, 776.28 361.87 C 776.89 361.30, 776.77 361.08, 775.96 361.18 C 775.15 361.27, 774.14 361.73, 772.23 362.35 C 770.31 362.96, 769.03 363.39, 766.38 364.26 C 763.72 365.13, 762.00 365.88, 758.94 366.68 C 755.88 367.48, 754.16 367.83, 751.07 368.26 C 747.99 368.69, 746.33 368.78, 743.52 368.81 C 740.71 368.85, 739.29 368.77, 737.02 368.45 C 734.75 368.14, 733.71 367.87, 732.16 367.23 C 730.61 366.59, 729.99 366.20, 729.28 365.25 C 728.57 364.30, 728.39 363.75, 728.61 362.48 C 728.83 361.20, 729.21 360.44, 730.37 358.86 C 731.53 357.27, 732.45 356.32, 734.41 354.56 C 736.37 352.80, 737.68 351.71, 740.19 350.05 C 742.70 348.38, 744.32 347.51, 746.96 346.23 C 749.60 344.95, 751.09 344.40, 753.39 343.65 C 755.69 342.89, 756.80 342.70, 758.44 342.45 C 760.09 342.20, 760.74 342.29, 761.61 342.41 C 762.48 342.53, 762.69 342.66, 762.80 343.06 C 762.91 343.46, 762.77 343.74, 762.17 344.42 C 761.58 345.11, 761.06 345.58, 759.83 346.48 C 758.59 347.39, 757.72 347.95, 756.00 348.94 C 754.29 349.92, 753.20 350.49, 751.24 351.42 C 749.27 352.36, 748.10 352.83, 746.18 353.61 C 744.26 354.39, 743.18 354.70, 741.65 355.30 C 740.12 355.90, 739.46 356.16, 738.52 356.59 C 737.57 357.03, 737.20 357.11, 736.91 357.46 C 736.62 357.81, 736.64 358.12, 737.06 358.34" style="stroke: black; fill: black;"/><path d="M 798.60,320.35 C 798.18 320.68, 798.03 321.09, 797.33 322.28 C 796.63 323.47, 796.14 324.22, 795.09 326.28 C 794.04 328.35, 793.44 329.83, 792.09 332.61 C 790.74 335.40, 789.93 337.12, 788.34 340.20 C 786.76 343.28, 785.75 344.99, 784.17 347.99 C 782.58 351.00, 781.68 352.54, 780.43 355.23 C 779.18 357.91, 778.62 359.22, 777.91 361.40 C 777.20 363.59, 776.97 364.56, 776.88 366.17 C 776.79 367.78, 776.95 368.48, 777.46 369.45 C 777.97 370.43, 778.67 370.66, 779.44 371.04 C 780.20 371.41, 780.66 371.40, 781.28 371.33 C 781.91 371.26, 782.36 370.98, 782.57 370.67 C 782.79 370.36, 782.63 369.98, 782.37 369.78 C 782.10 369.58, 781.70 369.72, 781.24 369.67 C 780.79 369.62, 780.59 369.72, 780.10 369.54 C 779.61 369.37, 779.09 369.43, 778.80 368.79 C 778.52 368.15, 778.45 367.70, 778.67 366.36 C 778.89 365.02, 779.15 364.13, 779.91 362.10 C 780.67 360.06, 781.24 358.80, 782.46 356.17 C 783.69 353.55, 784.46 351.96, 786.03 348.97 C 787.60 345.99, 788.62 344.28, 790.30 341.24 C 791.98 338.21, 792.97 336.56, 794.43 333.80 C 795.89 331.05, 796.64 329.62, 797.59 327.47 C 798.54 325.32, 798.80 324.42, 799.17 323.05 C 799.54 321.69, 799.54 321.19, 799.43 320.65 C 799.32 320.11, 799.02 320.03, 798.60 320.35" style="stroke: black; fill: black;"/><path d="M 812.35,346.44 C 812.81 346.28, 813.14 345.87, 813.83 345.13 C 814.52 344.39, 814.90 343.85, 815.80 342.75 C 816.71 341.64, 817.24 340.88, 818.36 339.60 C 819.47 338.33, 820.10 337.65, 821.37 336.36 C 822.64 335.07, 823.39 334.39, 824.71 333.18 C 826.04 331.96, 826.76 331.31, 828.00 330.27 C 829.24 329.22, 829.91 328.73, 830.92 327.94 C 831.93 327.16, 832.46 326.83, 833.04 326.33 C 833.62 325.83, 833.82 325.44, 833.84 325.44 C 833.86 325.43, 833.64 325.51, 833.12 326.32 C 832.60 327.12, 832.17 327.84, 831.24 329.46 C 830.31 331.09, 829.69 332.20, 828.45 334.43 C 827.21 336.67, 826.43 338.13, 825.03 340.64 C 823.63 343.15, 822.79 344.55, 821.45 347.00 C 820.11 349.45, 819.44 350.69, 818.34 352.89 C 817.23 355.08, 816.70 356.14, 815.94 357.98 C 815.18 359.82, 814.84 360.71, 814.54 362.09 C 814.23 363.47, 814.33 364.03, 814.42 364.88 C 814.51 365.74, 814.73 365.99, 815.00 366.37 C 815.26 366.75, 815.53 366.78, 815.75 366.79 C 815.97 366.80, 816.05 366.59, 816.09 366.43 C 816.12 366.27, 815.95 366.30, 815.93 365.99 C 815.91 365.68, 815.90 365.57, 816.00 364.89 C 816.10 364.21, 816.03 363.80, 816.41 362.59 C 816.80 361.38, 817.14 360.58, 817.94 358.86 C 818.74 357.13, 819.26 356.08, 820.40 353.96 C 821.54 351.83, 822.26 350.63, 823.65 348.24 C 825.04 345.84, 825.88 344.45, 827.36 341.98 C 828.83 339.51, 829.75 338.13, 831.03 335.89 C 832.32 333.64, 832.99 332.55, 833.79 330.76 C 834.59 328.96, 834.92 328.10, 835.03 326.92 C 835.13 325.73, 834.87 325.25, 834.31 324.81 C 833.76 324.38, 833.19 324.48, 832.25 324.74 C 831.31 325.00, 830.78 325.37, 829.62 326.10 C 828.47 326.84, 827.79 327.37, 826.48 328.42 C 825.17 329.46, 824.44 330.12, 823.06 331.34 C 821.67 332.56, 820.92 333.24, 819.57 334.52 C 818.21 335.81, 817.49 336.45, 816.29 337.77 C 815.10 339.09, 814.46 339.87, 813.61 341.10 C 812.76 342.34, 812.46 343.00, 812.04 343.97 C 811.63 344.93, 811.47 345.44, 811.53 345.94 C 811.59 346.43, 811.89 346.60, 812.35 346.44" style="stroke: black; fill: black;"/><path d="M 864.80,333.48 C 864.52 333.17, 864.12 332.96, 863.31 332.88 C 862.49 332.79, 861.94 332.73, 860.71 333.06 C 859.48 333.39, 858.67 333.65, 857.14 334.54 C 855.62 335.43, 854.77 336.10, 853.08 337.52 C 851.39 338.93, 850.41 339.83, 848.70 341.60 C 846.99 343.36, 846.02 344.40, 844.53 346.36 C 843.04 348.31, 842.26 349.42, 841.25 351.38 C 840.24 353.34, 839.81 354.37, 839.48 356.18 C 839.15 357.98, 839.16 358.88, 839.60 360.39 C 840.03 361.90, 840.49 362.63, 841.66 363.73 C 842.84 364.82, 843.67 365.29, 845.47 365.86 C 847.26 366.44, 848.40 366.57, 850.65 366.60 C 852.89 366.63, 854.21 366.47, 856.71 366.00 C 859.20 365.53, 860.60 365.13, 863.12 364.23 C 865.64 363.33, 867.00 362.74, 869.32 361.50 C 871.65 360.27, 872.80 359.54, 874.74 358.05 C 876.68 356.56, 877.59 355.71, 879.01 354.03 C 880.43 352.36, 881.02 351.42, 881.84 349.67 C 882.66 347.91, 882.89 346.96, 883.10 345.25 C 883.31 343.54, 883.24 342.65, 882.89 341.10 C 882.54 339.56, 882.20 338.78, 881.36 337.55 C 880.53 336.31, 879.94 335.76, 878.74 334.92 C 877.53 334.08, 876.76 333.75, 875.35 333.36 C 873.94 332.97, 873.09 332.89, 871.70 332.97 C 870.30 333.05, 869.46 333.34, 868.36 333.75 C 867.26 334.17, 866.83 334.51, 866.22 335.03 C 865.61 335.54, 865.40 335.97, 865.31 336.34 C 865.22 336.72, 865.41 336.87, 865.75 336.91 C 866.10 336.94, 866.37 336.68, 867.03 336.50 C 867.69 336.32, 868.09 336.22, 869.05 336.00 C 870.01 335.78, 870.71 335.48, 871.85 335.40 C 872.99 335.32, 873.64 335.33, 874.76 335.60 C 875.89 335.87, 876.52 336.14, 877.48 336.77 C 878.45 337.40, 878.92 337.80, 879.59 338.76 C 880.26 339.72, 880.54 340.33, 880.82 341.57 C 881.10 342.82, 881.19 343.55, 881.01 344.99 C 880.83 346.42, 880.64 347.23, 879.90 348.75 C 879.17 350.27, 878.65 351.09, 877.33 352.58 C 876.02 354.07, 875.17 354.85, 873.34 356.20 C 871.51 357.55, 870.41 358.21, 868.20 359.34 C 865.98 360.46, 864.67 361.01, 862.28 361.83 C 859.89 362.65, 858.55 363.00, 856.22 363.45 C 853.90 363.89, 852.67 364.00, 850.64 364.04 C 848.62 364.07, 847.63 363.98, 846.10 363.62 C 844.56 363.25, 843.91 362.97, 842.97 362.23 C 842.02 361.48, 841.68 361.01, 841.38 359.89 C 841.09 358.77, 841.11 358.09, 841.49 356.62 C 841.88 355.14, 842.30 354.24, 843.31 352.50 C 844.32 350.77, 845.08 349.74, 846.54 347.93 C 848.00 346.13, 848.95 345.14, 850.62 343.48 C 852.28 341.82, 853.26 340.95, 854.84 339.63 C 856.43 338.31, 857.22 337.71, 858.55 336.87 C 859.88 336.04, 860.53 335.88, 861.51 335.47 C 862.49 335.07, 862.82 335.07, 863.47 334.86 C 864.12 334.66, 864.47 334.72, 864.74 334.44 C 865.00 334.17, 865.09 333.80, 864.80 333.48" style="stroke: black; fill: black;"/><path d="M 902.16,345.57 C 901.76 345.77, 901.53 346.09, 900.97 346.91 C 900.41 347.73, 900.06 348.31, 899.37 349.66 C 898.68 351.02, 898.23 351.98, 897.52 353.67 C 896.81 355.36, 896.41 356.38, 895.81 358.09 C 895.22 359.80, 894.87 360.69, 894.53 362.20 C 894.19 363.71, 894.05 364.45, 894.13 365.66 C 894.20 366.86, 894.35 367.45, 894.92 368.23 C 895.50 369.02, 895.97 369.36, 896.99 369.59 C 898.01 369.83, 898.68 369.80, 900.04 369.40 C 901.39 369.00, 902.17 368.59, 903.77 367.60 C 905.38 366.62, 906.27 365.90, 908.04 364.49 C 909.82 363.09, 910.85 362.18, 912.63 360.57 C 914.42 358.97, 915.43 358.00, 916.98 356.49 C 918.53 354.97, 919.36 354.20, 920.39 352.99 C 921.43 351.79, 921.87 351.09, 922.15 350.47 C 922.43 349.85, 922.23 349.65, 921.80 349.91 C 921.36 350.16, 920.75 350.69, 919.97 351.76 C 919.19 352.84, 918.63 353.67, 917.90 355.28 C 917.16 356.90, 916.77 358.06, 916.30 359.82 C 915.83 361.58, 915.58 362.55, 915.55 364.09 C 915.52 365.63, 915.62 366.35, 916.13 367.52 C 916.65 368.68, 917.06 369.22, 918.12 369.91 C 919.19 370.60, 919.91 370.85, 921.45 370.96 C 922.99 371.07, 923.94 370.96, 925.83 370.48 C 927.71 370.01, 928.79 369.59, 930.88 368.59 C 932.97 367.58, 934.16 366.88, 936.28 365.47 C 938.41 364.06, 939.56 363.19, 941.52 361.54 C 943.47 359.90, 944.47 358.94, 946.06 357.25 C 947.65 355.56, 948.37 354.64, 949.46 353.08 C 950.54 351.52, 950.95 350.75, 951.48 349.46 C 952.01 348.16, 952.10 347.52, 952.13 346.60 C 952.15 345.68, 951.87 345.31, 951.60 344.85 C 951.33 344.39, 951.02 344.33, 950.78 344.28 C 950.53 344.24, 950.41 344.44, 950.36 344.63 C 950.30 344.82, 950.49 344.88, 950.51 345.23 C 950.53 345.59, 950.62 345.72, 950.45 346.40 C 950.29 347.08, 950.24 347.56, 949.69 348.63 C 949.13 349.71, 948.75 350.39, 947.68 351.78 C 946.61 353.17, 945.90 354.03, 944.34 355.59 C 942.79 357.15, 941.80 358.05, 939.90 359.59 C 938.00 361.13, 936.88 361.95, 934.84 363.27 C 932.81 364.59, 931.66 365.24, 929.72 366.19 C 927.78 367.13, 926.79 367.49, 925.14 367.98 C 923.49 368.48, 922.70 368.61, 921.49 368.67 C 920.27 368.74, 919.79 368.69, 919.05 368.32 C 918.32 367.96, 918.07 367.67, 917.81 366.86 C 917.56 366.06, 917.55 365.53, 917.78 364.30 C 918.01 363.06, 918.34 362.23, 918.95 360.69 C 919.56 359.15, 920.17 358.15, 920.85 356.59 C 921.52 355.04, 921.94 354.19, 922.31 352.91 C 922.69 351.62, 922.89 350.83, 922.71 350.16 C 922.53 349.48, 922.19 349.30, 921.41 349.54 C 920.62 349.78, 920.02 350.34, 918.78 351.36 C 917.55 352.38, 916.84 353.21, 915.25 354.64 C 913.66 356.08, 912.63 357.01, 910.85 358.54 C 909.06 360.07, 908.03 360.96, 906.32 362.32 C 904.61 363.67, 903.72 364.34, 902.29 365.31 C 900.87 366.27, 900.20 366.65, 899.18 367.16 C 898.16 367.67, 897.79 367.80, 897.19 367.85 C 896.60 367.90, 896.44 367.82, 896.21 367.39 C 895.98 366.96, 895.96 366.60, 896.07 365.69 C 896.18 364.77, 896.32 364.14, 896.76 362.81 C 897.20 361.49, 897.59 360.65, 898.28 359.05 C 898.97 357.46, 899.47 356.49, 900.21 354.84 C 900.95 353.19, 901.43 352.23, 901.97 350.81 C 902.50 349.39, 902.68 348.71, 902.89 347.73 C 903.09 346.75, 903.15 346.35, 903.00 345.92 C 902.86 345.49, 902.57 345.37, 902.16 345.57" style="stroke: black; fill: black;"/><path d="M 989.75,350.88 C 989.70 350.38, 989.46 349.80, 988.77 349.10 C 988.08 348.40, 987.58 347.92, 986.32 347.37 C 985.07 346.81, 984.23 346.46, 982.50 346.32 C 980.78 346.17, 979.77 346.27, 977.71 346.66 C 975.65 347.04, 974.46 347.36, 972.21 348.25 C 969.95 349.14, 968.63 349.75, 966.43 351.10 C 964.24 352.45, 963.04 353.34, 961.24 354.99 C 959.44 356.64, 958.54 357.62, 957.43 359.35 C 956.32 361.09, 955.90 362.03, 955.69 363.66 C 955.47 365.29, 955.62 366.16, 956.35 367.50 C 957.08 368.83, 957.76 369.50, 959.33 370.35 C 960.90 371.20, 961.99 371.49, 964.19 371.75 C 966.39 372.00, 967.77 371.95, 970.32 371.62 C 972.88 371.28, 974.35 370.91, 976.97 370.08 C 979.59 369.26, 981.01 368.69, 983.42 367.50 C 985.84 366.30, 987.08 365.60, 989.05 364.12 C 991.01 362.65, 991.93 361.76, 993.26 360.14 C 994.59 358.52, 995.10 357.62, 995.71 356.02 C 996.31 354.43, 996.38 353.56, 996.28 352.16 C 996.18 350.75, 995.87 350.00, 995.21 349.00 C 994.56 348.00, 993.84 347.58, 993.01 347.16 C 992.19 346.74, 991.53 346.79, 991.08 346.90 C 990.64 347.01, 990.58 347.33, 990.77 347.69 C 990.95 348.05, 991.45 348.22, 992.00 348.70 C 992.55 349.18, 993.05 349.39, 993.53 350.11 C 994.00 350.82, 994.31 351.25, 994.38 352.28 C 994.44 353.32, 994.39 353.98, 993.84 355.27 C 993.28 356.56, 992.83 357.33, 991.59 358.72 C 990.36 360.12, 989.52 360.93, 987.67 362.24 C 985.83 363.55, 984.65 364.20, 982.35 365.27 C 980.06 366.35, 978.68 366.86, 976.21 367.61 C 973.73 368.35, 972.33 368.67, 969.97 368.99 C 967.62 369.31, 966.36 369.32, 964.42 369.20 C 962.48 369.09, 961.57 368.91, 960.26 368.39 C 958.95 367.87, 958.44 367.50, 957.89 366.61 C 957.34 365.73, 957.24 365.17, 957.51 363.97 C 957.78 362.77, 958.17 362.04, 959.25 360.61 C 960.32 359.18, 961.17 358.30, 962.88 356.84 C 964.59 355.39, 965.73 354.56, 967.78 353.33 C 969.84 352.10, 971.09 351.53, 973.17 350.70 C 975.26 349.87, 976.38 349.56, 978.20 349.20 C 980.03 348.84, 980.87 348.78, 982.30 348.88 C 983.74 348.99, 984.32 349.33, 985.36 349.71 C 986.40 350.10, 986.75 350.42, 987.49 350.80 C 988.22 351.17, 988.58 351.57, 989.04 351.58 C 989.49 351.60, 989.81 351.37, 989.75 350.88" style="stroke: black; fill: black;"/><path d="M 1017.46,353.66 C 1017.06 353.82, 1016.86 354.10, 1016.26 354.82 C 1015.66 355.54, 1015.26 356.06, 1014.45 357.27 C 1013.64 358.47, 1013.13 359.36, 1012.23 360.84 C 1011.33 362.32, 1010.79 363.24, 1009.94 364.67 C 1009.08 366.10, 1008.54 366.86, 1007.95 367.99 C 1007.36 369.12, 1007.11 369.68, 1007.00 370.32 C 1006.88 370.97, 1007.04 371.23, 1007.40 371.22 C 1007.76 371.21, 1008.12 371.02, 1008.79 370.28 C 1009.46 369.53, 1009.84 368.86, 1010.73 367.50 C 1011.62 366.15, 1012.04 365.15, 1013.24 363.49 C 1014.44 361.83, 1015.15 360.85, 1016.71 359.20 C 1018.26 357.54, 1019.21 356.67, 1021.00 355.21 C 1022.78 353.74, 1023.79 353.02, 1025.64 351.88 C 1027.48 350.73, 1028.47 350.24, 1030.23 349.49 C 1032.00 348.73, 1032.89 348.46, 1034.46 348.12 C 1036.03 347.77, 1036.74 347.75, 1038.10 347.77 C 1039.45 347.79, 1040.19 348.05, 1041.24 348.21 C 1042.29 348.36, 1042.63 348.44, 1043.34 348.55 C 1044.05 348.67, 1044.42 348.87, 1044.77 348.78 C 1045.12 348.70, 1045.26 348.47, 1045.09 348.13 C 1044.91 347.78, 1044.57 347.46, 1043.89 347.07 C 1043.20 346.67, 1042.81 346.44, 1041.66 346.14 C 1040.51 345.85, 1039.66 345.63, 1038.13 345.60 C 1036.60 345.58, 1035.77 345.65, 1034.02 346.01 C 1032.26 346.37, 1031.29 346.62, 1029.37 347.39 C 1027.45 348.15, 1026.39 348.67, 1024.40 349.84 C 1022.42 351.01, 1021.35 351.75, 1019.43 353.25 C 1017.51 354.75, 1016.50 355.65, 1014.80 357.36 C 1013.11 359.06, 1012.28 360.06, 1010.94 361.78 C 1009.61 363.49, 1008.97 364.44, 1008.14 365.94 C 1007.31 367.43, 1007.02 368.21, 1006.78 369.25 C 1006.54 370.28, 1006.65 370.74, 1006.92 371.11 C 1007.19 371.49, 1007.53 371.50, 1008.14 371.13 C 1008.74 370.77, 1009.13 370.29, 1009.94 369.29 C 1010.75 368.30, 1011.24 367.52, 1012.20 366.14 C 1013.16 364.76, 1013.80 363.89, 1014.75 362.41 C 1015.69 360.92, 1016.25 360.04, 1016.92 358.71 C 1017.59 357.39, 1017.83 356.73, 1018.11 355.79 C 1018.38 354.86, 1018.40 354.47, 1018.27 354.05 C 1018.15 353.62, 1017.86 353.51, 1017.46 353.66" style="stroke: black; fill: black;"/><path d="M 1078.57,356.45 C 1078.45 356.00, 1078.17 355.53, 1077.43 354.99 C 1076.68 354.44, 1076.14 354.08, 1074.86 353.74 C 1073.58 353.39, 1072.74 353.21, 1071.04 353.27 C 1069.34 353.33, 1068.35 353.51, 1066.36 354.05 C 1064.36 354.58, 1063.19 354.98, 1061.05 355.95 C 1058.91 356.92, 1057.68 357.58, 1055.66 358.91 C 1053.64 360.24, 1052.55 361.08, 1050.95 362.60 C 1049.35 364.12, 1048.58 365.00, 1047.66 366.52 C 1046.75 368.05, 1046.44 368.87, 1046.36 370.24 C 1046.28 371.61, 1046.49 372.32, 1047.26 373.37 C 1048.04 374.41, 1048.71 374.90, 1050.22 375.47 C 1051.72 376.04, 1052.72 376.20, 1054.79 376.23 C 1056.87 376.25, 1058.14 376.11, 1060.61 375.59 C 1063.08 375.07, 1064.51 374.65, 1067.13 373.63 C 1069.75 372.62, 1071.14 371.95, 1073.70 370.52 C 1076.27 369.10, 1077.59 368.27, 1079.94 366.51 C 1082.28 364.75, 1083.42 363.74, 1085.44 361.73 C 1087.46 359.72, 1088.37 358.60, 1090.02 356.46 C 1091.67 354.32, 1092.41 353.18, 1093.70 351.03 C 1094.98 348.87, 1095.50 347.74, 1096.43 345.69 C 1097.37 343.65, 1097.79 342.63, 1098.37 340.82 C 1098.95 339.00, 1099.31 337.95, 1099.35 336.61 C 1099.39 335.28, 1099.18 334.57, 1098.59 334.14 C 1097.99 333.71, 1097.44 333.73, 1096.39 334.48 C 1095.34 335.23, 1094.65 336.03, 1093.32 337.88 C 1091.99 339.73, 1091.18 341.13, 1089.74 343.73 C 1088.30 346.32, 1087.52 348.02, 1086.13 350.86 C 1084.74 353.70, 1083.95 355.21, 1082.78 357.92 C 1081.61 360.62, 1081.06 361.94, 1080.29 364.41 C 1079.52 366.87, 1079.24 368.08, 1078.94 370.23 C 1078.63 372.37, 1078.61 373.37, 1078.78 375.13 C 1078.94 376.90, 1079.16 377.69, 1079.76 379.05 C 1080.36 380.41, 1080.90 381.03, 1081.77 381.92 C 1082.65 382.80, 1083.30 383.11, 1084.13 383.47 C 1084.97 383.83, 1085.53 383.80, 1085.95 383.70 C 1086.38 383.61, 1086.44 383.33, 1086.26 382.98 C 1086.08 382.63, 1085.64 382.46, 1085.05 381.95 C 1084.46 381.45, 1083.99 381.19, 1083.29 380.45 C 1082.59 379.71, 1082.07 379.33, 1081.57 378.24 C 1081.07 377.14, 1080.89 376.51, 1080.78 374.97 C 1080.68 373.43, 1080.71 372.52, 1081.04 370.55 C 1081.37 368.57, 1081.64 367.43, 1082.42 365.09 C 1083.20 362.76, 1083.75 361.48, 1084.93 358.86 C 1086.10 356.23, 1086.83 354.71, 1088.30 351.98 C 1089.77 349.24, 1090.76 347.68, 1092.25 345.17 C 1093.74 342.67, 1094.66 341.36, 1095.75 339.45 C 1096.85 337.55, 1097.25 336.64, 1097.73 335.67 C 1098.20 334.69, 1098.17 334.47, 1098.12 334.60 C 1098.06 334.72, 1097.83 335.18, 1097.44 336.28 C 1097.06 337.37, 1096.81 338.38, 1096.19 340.07 C 1095.58 341.77, 1095.26 342.79, 1094.37 344.75 C 1093.48 346.70, 1092.96 347.79, 1091.73 349.85 C 1090.49 351.91, 1089.78 353.00, 1088.19 355.04 C 1086.60 357.09, 1085.71 358.15, 1083.78 360.06 C 1081.85 361.98, 1080.78 362.96, 1078.53 364.62 C 1076.28 366.29, 1075.00 367.07, 1072.54 368.38 C 1070.07 369.70, 1068.70 370.28, 1066.21 371.20 C 1063.71 372.12, 1062.35 372.49, 1060.06 372.97 C 1057.77 373.46, 1056.60 373.55, 1054.76 373.63 C 1052.92 373.71, 1052.10 373.62, 1050.86 373.36 C 1049.63 373.09, 1049.14 372.88, 1048.58 372.30 C 1048.02 371.71, 1047.89 371.34, 1048.06 370.43 C 1048.23 369.51, 1048.53 368.91, 1049.43 367.71 C 1050.34 366.50, 1051.06 365.73, 1052.59 364.40 C 1054.12 363.08, 1055.16 362.30, 1057.07 361.09 C 1058.98 359.88, 1060.15 359.26, 1062.14 358.36 C 1064.14 357.46, 1065.24 357.09, 1067.04 356.59 C 1068.85 356.10, 1069.70 355.97, 1071.15 355.90 C 1072.60 355.83, 1073.22 356.04, 1074.29 356.23 C 1075.35 356.43, 1075.74 356.65, 1076.48 356.86 C 1077.23 357.06, 1077.59 357.34, 1078.00 357.26 C 1078.42 357.18, 1078.68 356.91, 1078.57 356.45" style="stroke: black; fill: black;"/></svg>